<svg width="216" height="216" viewBox="0 0 216 216" fill="none" xmlns="http://www.w3.org/2000/svg">
<circle cx="108" cy="108" r="108" fill="white"/>
<g clip-path="url(#clip0_789_11)">
<path d="M43.8821 89.8684C45.7685 93.882 50.4373 101.815 50.4373 101.815L104.411 13L51.7341 49.6152C48.5953 51.6995 46.0201 54.5208 44.2358 57.8301C41.8366 62.8226 40.5619 68.2765 40.5008 73.8104C40.4397 79.3443 41.5937 84.8247 43.8821 89.8684V89.8684Z" fill="url(#paint0_linear_789_11)"/>
<path d="M22.4952 119.114C23.0899 127.609 25.5014 135.88 29.568 143.373C33.6346 150.866 39.2625 157.407 46.0749 162.559L104.34 203C104.34 203 67.8861 150.706 37.1382 98.6702C34.0253 93.1726 31.9326 87.1619 30.9603 80.9259C30.5299 78.102 30.5299 75.2297 30.9603 72.4058C30.1586 73.8845 28.6023 76.9123 28.6023 76.9123C25.4846 83.2416 23.3613 90.0097 22.3065 96.9802C21.6994 104.349 21.7626 111.757 22.4952 119.114V119.114Z" fill="#A0A8D4"/>
<path d="M171.141 126.132C169.255 122.118 164.586 114.185 164.586 114.185L110.612 203L163.289 166.408C166.428 164.324 169.003 161.503 170.788 158.193C173.19 153.198 174.467 147.74 174.528 142.201C174.589 136.663 173.433 131.178 171.141 126.132V126.132Z" fill="url(#paint1_linear_789_11)"/>
<path d="M192.528 96.8864C191.934 88.3908 189.522 80.1197 185.455 72.627C181.389 65.1343 175.761 58.593 168.949 53.441L110.683 13C110.683 13 147.114 65.294 177.885 117.33C180.99 122.829 183.075 128.84 184.04 135.074C184.47 137.898 184.47 140.77 184.04 143.594C184.841 142.116 186.398 139.088 186.398 139.088C189.515 132.758 191.639 125.99 192.693 119.02C193.308 111.652 193.253 104.244 192.528 96.8864Z" fill="#A0A8D4"/>
<path style="mix-blend-mode:color" d="M44.2357 57.8301C46.02 54.5208 48.5952 51.6995 51.734 49.6152L104.411 13L50.4371 101.839C50.4371 101.839 45.7212 93.9055 43.882 89.8919C41.59 84.845 40.4341 79.3604 40.4952 73.8221C40.5563 68.2838 41.8329 62.8258 44.2357 57.8301V57.8301ZM22.4952 119.114C23.0899 127.609 25.5014 135.88 29.568 143.373C33.6346 150.866 39.2625 157.407 46.0749 162.559L104.34 203C104.34 203 67.8861 150.706 37.1382 98.6702C34.0253 93.1726 31.9326 87.1619 30.9603 80.9259C30.5299 78.102 30.5299 75.2297 30.9603 72.4058C30.1586 73.8845 28.6023 76.9123 28.6023 76.9123C25.4846 83.2416 23.3613 90.0097 22.3065 96.9802C21.6994 104.349 21.7626 111.757 22.4952 119.114V119.114ZM171.047 126.155C169.161 122.141 164.492 114.208 164.492 114.208L110.613 203L163.29 166.408C166.428 164.324 169.004 161.503 170.788 158.193C173.191 153.198 174.467 147.74 174.528 142.201C174.589 136.663 173.434 131.178 171.142 126.132L171.047 126.155ZM192.434 96.9098C191.839 88.4142 189.428 80.1432 185.361 72.6505C181.295 65.1578 175.667 58.6165 168.854 53.4645L110.683 13C110.683 13 147.114 65.294 177.885 117.33C180.99 122.829 183.075 128.84 184.04 135.074C184.47 137.898 184.47 140.77 184.04 143.594C184.841 142.116 186.398 139.088 186.398 139.088C189.515 132.758 191.639 125.99 192.693 119.02C193.308 111.652 193.253 104.244 192.528 96.8864L192.434 96.9098Z" fill="url(#paint2_linear_789_11)"/>
</g>
<defs>
<linearGradient id="paint0_linear_789_11" x1="106.769" y1="15.1828" x2="37.8369" y2="90.2555" gradientUnits="userSpaceOnUse">
<stop offset="0.58" stop-color="#A0A8D4"/>
<stop offset="0.73" stop-color="#8791C7"/>
<stop offset="0.91" stop-color="#6470B4"/>
</linearGradient>
<linearGradient id="paint1_linear_789_11" x1="2831.61" y1="7366.84" x2="5371.46" y2="5385.98" gradientUnits="userSpaceOnUse">
<stop offset="0.58" stop-color="#A0A8D4"/>
<stop offset="0.73" stop-color="#8791C7"/>
<stop offset="0.91" stop-color="#6470B4"/>
</linearGradient>
<linearGradient id="paint2_linear_789_11" x1="107.5" y1="12.0611" x2="107.5" y2="203.587" gradientUnits="userSpaceOnUse">
<stop stop-color="#513EFF"/>
<stop offset="0.18" stop-color="#5157FF"/>
<stop offset="0.57" stop-color="#5298FF"/>
<stop offset="1" stop-color="#52E5FF"/>
</linearGradient>
<clipPath id="clip0_789_11">
<rect width="171" height="190" fill="white" transform="translate(22 13)"/>
</clipPath>
</defs>
</svg>
